<svg xmlns="http://www.w3.org/2000/svg" viewBox="0 0 662.24 179.5"><defs><style>.cls-1{fill:#34cffd;}</style></defs><title>mian_logo</title><g id="Layer_2" data-name="Layer 2"><g id="Layer_1-2" data-name="Layer 1"><path class="cls-1" d="M88.5,151.25a16.1,16.1,0,0,1-1.75,7.25,34.46,34.46,0,0,1-15.63,15.75q-10.37,5.25-24.87,5.25-21.78,0-34-12.75T0,131.25v-101q0-7,3.66-10.87T13.88,15.5q6.55,0,10.21,3.88t3.66,10.87v26.5h41.5q6.5,0,10.13,3.37T83,69.5a11.85,11.85,0,0,1-3.62,9.12Q75.75,82,69.25,82H27.75v50q0,10.75,5.25,16.5t14.5,5.75a20,20,0,0,0,17.75-9.75,13.85,13.85,0,0,1,4.37-4.38,11.45,11.45,0,0,1,6.13-1.62,13.22,13.22,0,0,1,9.13,3.25Q88.5,145,88.5,151.25Z"/><path class="cls-1" d="M215.75,158.75a53.88,53.88,0,0,1-20.88,15.37,71.61,71.61,0,0,1-28.37,5.38,75,75,0,0,1-26.88-4.62A61.27,61.27,0,0,1,118.87,162a55.8,55.8,0,0,1-13.25-19.75,67.78,67.78,0,0,1-4.62-25.5,68.87,68.87,0,0,1,4.62-25.63,56.44,56.44,0,0,1,13.13-19.87,60.18,60.18,0,0,1,20.37-12.87,71.31,71.31,0,0,1,26.13-4.63,66.48,66.48,0,0,1,24.25,4.37A62.2,62.2,0,0,1,209,70a53.8,53.8,0,0,1,12.87,17.62,51.41,51.41,0,0,1,4.63,21.63v1.25q0,7.26-4.5,11.62t-11.75,4.38H130q2.49,13.26,12.25,20.88T166.5,155a39.39,39.39,0,0,0,17.12-3.5,35.2,35.2,0,0,0,11.88-8.75,13,13,0,0,1,10.25-5q6,0,9.5,3.5a12.53,12.53,0,0,1,3.5,9.25A12.91,12.91,0,0,1,215.75,158.75Zm-50.5-80.5q-13.26,0-22.88,7.13A31.83,31.83,0,0,0,130,104.5h69.75a32.51,32.51,0,0,0-12-19.12Q178.5,78.24,165.25,78.25Z"/><path class="cls-1" d="M357.12,0q6.56,0,10.34,4t3.79,10.75v148.5q0,7-3.79,10.87T357.12,178q-6.3,0-10-3.88t-3.65-10.87V162H343a45.5,45.5,0,0,1-17.5,13,60.43,60.43,0,0,1-24,4.5,61.54,61.54,0,0,1-24-4.5A53.2,53.2,0,0,1,259,162.25a56,56,0,0,1-11.88-19.75A75.85,75.85,0,0,1,243,116.75a76.89,76.89,0,0,1,4.12-25.87A55.82,55.82,0,0,1,259,71a53.2,53.2,0,0,1,18.5-12.75,61.54,61.54,0,0,1,24-4.5,60.43,60.43,0,0,1,24,4.5,45.6,45.6,0,0,1,17.5,13h.69l-.19-56.5Q343.5,8,347.15,4T357.12,0ZM306.87,154.25a38.83,38.83,0,0,0,14.8-2.75,33.82,33.82,0,0,0,11.67-7.75,34.35,34.35,0,0,0,7.52-11.87,41.92,41.92,0,0,0,2.64-15.13,42.89,42.89,0,0,0-2.64-15.25,33.41,33.41,0,0,0-19.19-19.75A39,39,0,0,0,306.87,79q-16,0-26.09,10.38t-10,27.37q0,16.75,10,27.13T306.87,154.25Z"/><path class="cls-1" d="M509.5,158.75a54,54,0,0,1-20.88,15.37,71.64,71.64,0,0,1-28.37,5.38,74.93,74.93,0,0,1-26.88-4.62A61.17,61.17,0,0,1,412.62,162a55.67,55.67,0,0,1-13.25-19.75,67.58,67.58,0,0,1-4.62-25.5,68.67,68.67,0,0,1,4.62-25.63A56.3,56.3,0,0,1,412.5,71.25a60.08,60.08,0,0,1,20.37-12.87A71.27,71.27,0,0,1,459,53.75a66.48,66.48,0,0,1,24.25,4.37A62.2,62.2,0,0,1,502.75,70a54,54,0,0,1,12.87,17.62,51.56,51.56,0,0,1,4.63,21.63v1.25q0,7.26-4.5,11.62T504,126.5H423.75q2.49,13.26,12.25,20.88T460.25,155a39.42,39.42,0,0,0,17.12-3.5,35.3,35.3,0,0,0,11.88-8.75,13,13,0,0,1,10.25-5q6,0,9.5,3.5a12.53,12.53,0,0,1,3.5,9.25A12.91,12.91,0,0,1,509.5,158.75ZM459,78.25q-13.26,0-22.88,7.13a31.79,31.79,0,0,0-12.37,19.12H493.5a32.51,32.51,0,0,0-12-19.12Q472.25,78.24,459,78.25Z"/><path class="cls-1" d="M651.49,158.75a53.92,53.92,0,0,1-20.87,15.37,71.69,71.69,0,0,1-28.38,5.38,74.91,74.91,0,0,1-26.87-4.62A61.17,61.17,0,0,1,554.62,162a55.67,55.67,0,0,1-13.25-19.75,67.59,67.59,0,0,1-4.63-25.5,68.68,68.68,0,0,1,4.63-25.63,56.42,56.42,0,0,1,13.12-19.87,60.22,60.22,0,0,1,20.38-12.87A71.21,71.21,0,0,1,601,53.75a66.45,66.45,0,0,1,24.25,4.37A62.2,62.2,0,0,1,644.74,70a54,54,0,0,1,12.88,17.62,51.55,51.55,0,0,1,4.62,21.63v1.25q0,7.26-4.5,11.62T646,126.5H565.74q2.5,13.26,12.25,20.88T602.24,155a39.46,39.46,0,0,0,17.13-3.5,35.26,35.26,0,0,0,11.87-8.75,13,13,0,0,1,10.25-5q6,0,9.5,3.5a12.49,12.49,0,0,1,3.5,9.25A12.91,12.91,0,0,1,651.49,158.75ZM601,78.25q-13.25,0-22.87,7.13a31.84,31.84,0,0,0-12.38,19.12h69.75a32.41,32.41,0,0,0-12-19.12Q614.25,78.24,601,78.25Z"/></g></g></svg>